# Blender v2.63 (sub 0) OBJ File: ''
# www.blender.org
o Mesh_Mesh_Mesh_Cube.001
v 0.666667 0.000749 -0.666667
v 0.666667 0.000749 0.000000
v 0.000000 0.000749 0.000000
v 0.000000 0.000749 -0.666667
v 0.791666 0.979251 -0.791667
v 0.000000 0.979251 -0.666667
v 0.000000 0.979251 0.000000
v 0.666666 0.979251 0.000000
v 2.000000 0.000749 -0.666667
v 2.000000 0.979251 -0.666666
v 1.999999 0.979251 0.000001
v 2.000000 0.000749 0.000000
v 0.000000 0.000749 -1.333334
v 0.000000 0.979251 -1.333333
v 0.000000 0.979252 -2.000000
v 0.000000 0.000749 -2.000000
v 0.666667 0.979252 -2.000000
v 0.666667 0.000749 -2.000000
v 1.333333 0.000749 0.000000
v 1.333333 0.000749 -0.666667
v 1.208333 0.979251 -0.791666
v 1.333333 0.979251 0.000000
v 2.000000 0.979252 -2.000000
v 2.000000 0.000749 -2.000000
v 1.333333 0.000749 -2.000000
v 1.333334 0.979252 -2.000000
v 0.666667 0.000749 -1.333333
v 0.791667 0.979251 -1.208333
v 2.000000 0.979251 -1.333333
v 2.000000 0.000749 -1.333333
v 1.333333 0.000749 -1.333333
v 1.208333 0.979251 -1.208333
v 0.791666 1.459674 -0.791667
v 0.791667 1.459674 -1.208333
v 0.791666 1.459674 -0.541667
v 0.791666 1.781114 -0.541667
v 0.541666 1.781114 -0.541667
v 0.541666 1.459674 -0.541667
v 1.208333 1.459674 -1.208333
v 1.208333 1.459674 -0.791666
v 1.458333 2.022364 -1.458333
v 1.458333 2.022364 -1.208333
v 1.458333 1.781114 -1.208333
v 1.458333 1.781114 -1.458333
v 0.791667 1.459674 -1.458333
v 1.208333 1.459674 -1.458333
v 0.541666 2.022364 -0.791667
v 0.541667 2.022364 -1.208333
v 0.541667 1.781114 -1.208333
v 0.541666 1.781114 -0.791667
v 1.208333 1.781114 -0.541666
v 1.208333 2.022364 -0.541666
v 0.791666 2.022364 -0.541667
v 1.208333 1.459674 -0.541666
v 1.458333 1.459674 -0.791666
v 1.458333 1.459674 -0.541666
v 0.541666 1.459674 -0.791667
v 0.541667 1.459674 -1.208333
v 1.458333 1.459674 -1.208333
v 1.458333 1.781114 -0.791666
v 1.458333 1.781114 -0.541666
v 1.458333 1.459674 -1.458333
v 0.541666 2.022364 -0.541667
v 0.791667 1.781114 -1.458333
v 1.208333 1.781114 -1.458333
v 1.458333 2.022364 -0.791666
v 1.458333 2.022364 -0.541666
v 1.208333 2.022364 -1.458333
v 0.541667 1.781114 -1.458333
v 0.541667 1.459674 -1.458333
v 0.541667 2.022364 -1.458333
v 1.208333 2.022364 -1.208333
v 0.791667 2.022364 -1.208333
v 0.791666 2.022364 -0.791667
v 1.208333 2.022364 -0.791666
v 0.791667 2.022364 -1.458333
vn 0.000000 -1.000000 -0.000000
vn 0.000000 1.000000 0.000000
vn 1.000000 -0.000000 0.000001
vn 1.000000 0.000001 0.000000
vn 0.000000 -0.000000 1.000000
vn -1.000000 -0.000000 0.000000
vn 0.000000 0.000000 -1.000000
vn -0.000002 -0.000001 1.000000
vn -0.000000 1.000000 0.000002
vn -0.000000 1.000000 0.000001
vn 1.000000 0.000000 0.000000
vn -1.000000 0.000000 -0.000002
vn -0.000002 -0.000000 1.000000
s off
f 1//1 2//1 3//1
f 1//1 3//1 4//1
f 5//2 6//2 7//2
f 5//2 7//2 8//2
f 9//3 10//3 11//3
f 9//4 11//4 12//4
f 2//5 8//5 7//5
f 2//5 7//5 3//5
f 13//6 14//6 15//6
f 13//6 15//6 16//6
f 17//7 18//7 16//7
f 17//7 16//7 15//7
f 9//1 12//1 19//1
f 9//1 19//1 20//1
f 2//1 1//1 20//1
f 2//1 20//1 19//1
f 10//2 21//2 22//2
f 10//2 22//2 11//2
f 21//2 5//2 8//2
f 21//2 8//2 22//2
f 12//8 11//8 22//8
f 12//5 22//5 19//5
f 19//5 22//5 8//5
f 19//5 8//5 2//5
f 23//7 24//7 25//7
f 23//7 25//7 26//7
f 26//7 25//7 18//7
f 26//7 18//7 17//7
f 18//1 27//1 13//1
f 18//1 13//1 16//1
f 27//1 1//1 4//1
f 27//1 4//1 13//1
f 17//9 15//9 14//9
f 17//10 14//10 28//10
f 28//2 14//2 6//2
f 28//2 6//2 5//2
f 24//11 23//11 29//11
f 24//11 29//11 30//11
f 30//11 29//11 10//11
f 30//11 10//11 9//11
f 3//6 7//6 6//6
f 3//6 6//6 4//6
f 4//6 6//6 14//6
f 4//6 14//6 13//6
f 24//1 30//1 31//1
f 24//1 31//1 25//1
f 30//1 9//1 20//1
f 30//1 20//1 31//1
f 25//1 31//1 27//1
f 25//1 27//1 18//1
f 1//1 27//1 31//1
f 1//1 31//1 20//1
f 23//10 26//10 32//10
f 23//9 32//9 29//9
f 29//2 32//2 21//2
f 29//2 21//2 10//2
f 26//10 17//10 28//10
f 26//10 28//10 32//10
f 33//12 34//12 28//12
f 33//12 28//12 5//12
f 35//5 36//5 37//5
f 35//5 37//5 38//5
f 34//7 39//7 32//7
f 34//7 32//7 28//7
f 5//13 21//13 40//13
f 5//13 40//13 33//13
f 21//11 32//11 39//11
f 21//11 39//11 40//11
f 41//11 42//11 43//11
f 41//11 43//11 44//11
f 45//1 46//1 39//1
f 45//1 39//1 34//1
f 47//12 48//12 49//12
f 47//12 49//12 50//12
f 36//13 51//13 52//13
f 36//13 52//13 53//13
f 35//13 54//13 51//13
f 35//13 51//13 36//13
f 54//1 40//1 55//1
f 54//1 55//1 56//1
f 57//1 58//1 34//1
f 57//1 34//1 33//1
f 33//1 40//1 54//1
f 33//1 54//1 35//1
f 55//11 59//11 43//11
f 55//11 43//11 60//11
f 55//11 60//11 61//11
f 55//11 61//11 56//11
f 43//11 59//11 62//11
f 43//11 62//11 44//11
f 40//1 39//1 59//1
f 40//1 59//1 55//1
f 53//5 63//5 37//5
f 53//5 37//5 36//5
f 56//5 61//5 51//5
f 56//5 51//5 54//5
f 64//7 65//7 46//7
f 64//7 46//7 45//7
f 44//7 62//7 46//7
f 44//7 46//7 65//7
f 61//11 60//11 66//11
f 61//11 66//11 67//11
f 51//5 61//5 67//5
f 51//5 67//5 52//5
f 59//1 39//1 46//1
f 59//1 46//1 62//1
f 44//7 65//7 68//7
f 44//7 68//7 41//7
f 50//12 49//12 58//12
f 50//12 58//12 57//12
f 38//6 37//6 50//6
f 38//6 50//6 57//6
f 69//6 70//6 58//6
f 69//6 58//6 49//6
f 58//1 70//1 45//1
f 58//1 45//1 34//1
f 64//7 45//7 70//7
f 64//7 70//7 69//7
f 50//6 37//6 63//6
f 50//6 63//6 47//6
f 33//1 35//1 38//1
f 33//1 38//1 57//1
f 48//6 71//6 69//6
f 48//6 69//6 49//6
f 72//2 73//2 74//2
f 72//2 74//2 75//2
f 53//10 52//10 75//10
f 53//10 75//10 74//10
f 66//2 42//2 72//2
f 66//2 72//2 75//2
f 67//10 66//10 75//10
f 67//10 75//10 52//10
f 73//2 76//2 71//2
f 73//2 71//2 48//2
f 41//2 68//2 72//2
f 41//2 72//2 42//2
f 73//2 72//2 68//2
f 73//2 68//2 76//2
f 47//10 63//10 53//10
f 47//10 53//10 74//10
f 74//2 73//2 48//2
f 74//2 48//2 47//2
f 76//7 68//7 65//7
f 76//7 65//7 64//7
f 60//11 43//11 42//11
f 60//11 42//11 66//11
f 64//7 69//7 71//7
f 64//7 71//7 76//7
